# xmcd
#
# Track frame offsets: 
#        150
#        4540
#        34590
#        55125
#        65692
#        85590
#        108732
#        124692
#        149322
#        163997
#        175670
#        195240
#        217947
#        255817
#        282510
#
# Disc length: 4151 seconds
#
# Revision: 5
# Processed by: cddbd v1.5.2PL0 Copyright (c) Steve Scherf et al.
# Submitted via: ExactAudioCopy v1.0b3
#
DISCID=c610350f
DTITLE=Friedrich Gulda - Tales of World Music [CD 1)
DYEAR=1900
DGENRE=Jazz
TTITLE0=シグネイション（グルダ作の＜序曲＞より）
TTITLE1=Oi nenna, nenna オイ・ネンナ・ネンナ（民謡）
TTITLE2=Mozart ピアノ・ソナタ第12番 K.332 より フィナーレ
TTITLE3=J.S.Bach プレリュード ハ長調（平均律クラヴィーア曲集 第1巻より）
TTITLE4=つれない女（民謡）
TTITLE5=マスト・ルッジェーロ（民謡）
TTITLE6=J.S.Bach サラバンド イ短調（イギリス組曲 第2番より）
TTITLE7=Pazzonarella mia 私の可愛い百姓娘（民謡）
TTITLE8=J.S.Bach イタリア協奏曲より フィナーレ Finale from Italian Concerto BWV971
TTITLE9=Bim, bum, ba ビン・ブン・バ（民謡）
TTITLE10=ダブルダンス  Double Dance 第一番（がレスビー、グルダ）
TTITLE11=ダブルダンス Double Dance 第２番（バシール、グルダ）
TTITLE12=Mozart ピアノ・ソナタ第10番 K.330より 第2楽章
TTITLE13=ソロ　第一番（バシール）
TTITLE14=J.S.Bach プレリュードとフーガ 変イ長調（平均律クラヴィーア曲集 第2巻より）
EXTD=
EXTT0=
EXTT1=
EXTT2=
EXTT3=
EXTT4=
EXTT5=
EXTT6=
EXTT7=
EXTT8=
EXTT9=
EXTT10=
EXTT11=
EXTT12=
EXTT13=
EXTT14=
PLAYORDER=
